<svg width="625" height="663" viewBox="0 0 625 663" fill="none" xmlns="http://www.w3.org/2000/svg">
<path d="M24.8576 392.385C17.1125 392.646 13.5571 382.845 19.6688 378.08L88.9745 324.05C89.0285 324.008 89.0492 323.936 89.0259 323.871C88.9816 323.749 89.0953 323.629 89.2197 323.666L122.593 333.623C127.025 334.945 129.416 339.739 127.806 344.074L112.815 384.446C111.686 387.489 108.829 389.547 105.586 389.657L24.8576 392.385Z" fill="#D2FF00"/>
<path d="M163.414 617.677C156.152 620.381 149.672 612.212 153.958 605.756L202.556 532.539C202.594 532.482 202.591 532.407 202.549 532.353C202.468 532.252 202.537 532.101 202.667 532.097L237.476 530.959C242.098 530.808 245.885 534.596 245.733 539.218L244.317 582.26C244.21 585.504 242.154 588.362 239.112 589.494L163.414 617.677Z" fill="#D2FF00"/>
<path d="M158.453 262.244C155.798 265.604 150.968 266.277 147.496 263.771L121.545 245.049C119.49 243.567 118.259 241.198 118.227 238.665L117.149 155.136C117.05 147.387 126.923 144.037 131.559 150.247L184.199 220.758L184.529 221.356C186.082 224.175 185.794 227.651 183.798 230.176L158.453 262.244Z" fill="#D2FF00"/>
<path d="M579.837 176.896C589.971 173.603 598.398 185.201 592.136 193.822L552.381 248.555C551.188 250.197 549.564 251.477 547.689 252.253L431.257 300.465C430.494 300.781 429.644 300.814 428.859 300.559C426.514 299.797 425.692 296.9 427.286 295.02L505.532 202.768C506.853 201.211 508.58 200.052 510.521 199.421L579.837 176.896Z" stroke="#D2FF00" stroke-width="6"/>
<path d="M255.93 66.0056C254.533 64.2634 254.05 61.9593 254.631 59.8031C254.861 58.9474 255.252 58.1426 255.783 57.4327L279.605 25.5498C284.534 18.9537 295.023 22.5175 294.914 30.7506L294.459 64.9113C294.393 69.8925 297.542 74.3502 302.259 75.9529L334.607 86.944C342.403 89.5928 342.256 100.67 334.392 103.11L295.387 115.214L255.93 66.0056Z" stroke="#D2FF00" stroke-width="3"/>
</svg>
