<svg width="63" height="63" viewBox="0 0 63 63" fill="none" xmlns="http://www.w3.org/2000/svg">
<g filter="url(#filter0_d_1783_687)">
<path d="M34.25 22.25C34.25 22.0511 34.171 21.8603 34.0303 21.7197C33.8897 21.579 33.6989 21.5 33.5 21.5C33.3011 21.5 33.1103 21.579 32.9697 21.7197C32.829 21.8603 32.75 22.0511 32.75 22.25C32.75 23.981 32.3675 25.0565 31.712 25.712C31.055 26.3675 29.981 26.75 28.25 26.75C28.0511 26.75 27.8603 26.829 27.7197 26.9697C27.579 27.1103 27.5 27.3011 27.5 27.5C27.5 27.6989 27.579 27.8897 27.7197 28.0303C27.8603 28.171 28.0511 28.25 28.25 28.25C29.981 28.25 31.0565 28.6325 31.712 29.288C32.3675 29.945 32.75 31.019 32.75 32.75C32.75 32.9489 32.829 33.1397 32.9697 33.2803C33.1103 33.421 33.3011 33.5 33.5 33.5C33.6989 33.5 33.8897 33.421 34.0303 33.2803C34.171 33.1397 34.25 32.9489 34.25 32.75C34.25 31.019 34.6325 29.9435 35.288 29.288C35.945 28.6325 37.019 28.25 38.75 28.25C38.9489 28.25 39.1397 28.171 39.2803 28.0303C39.421 27.8897 39.5 27.6989 39.5 27.5C39.5 27.3011 39.421 27.1103 39.2803 26.9697C39.1397 26.829 38.9489 26.75 38.75 26.75C37.019 26.75 35.9435 26.3675 35.288 25.712C34.6325 25.055 34.25 23.981 34.25 22.25ZM27.875 17.75C27.875 17.5511 27.796 17.3603 27.6553 17.2197C27.5147 17.079 27.3239 17 27.125 17C26.9261 17 26.7353 17.079 26.5947 17.2197C26.454 17.3603 26.375 17.5511 26.375 17.75C26.375 18.83 26.135 19.4375 25.7855 19.7855C25.4375 20.135 24.83 20.375 23.75 20.375C23.5511 20.375 23.3603 20.454 23.2197 20.5947C23.079 20.7353 23 20.9261 23 21.125C23 21.3239 23.079 21.5147 23.2197 21.6553C23.3603 21.796 23.5511 21.875 23.75 21.875C24.83 21.875 25.4375 22.115 25.7855 22.4645C26.135 22.8125 26.375 23.42 26.375 24.5C26.375 24.6989 26.454 24.8897 26.5947 25.0303C26.7353 25.171 26.9261 25.25 27.125 25.25C27.3239 25.25 27.5147 25.171 27.6553 25.0303C27.796 24.8897 27.875 24.6989 27.875 24.5C27.875 23.42 28.115 22.8125 28.4645 22.4645C28.8125 22.115 29.42 21.875 30.5 21.875C30.6989 21.875 30.8897 21.796 31.0303 21.6553C31.171 21.5147 31.25 21.3239 31.25 21.125C31.25 20.9261 31.171 20.7353 31.0303 20.5947C30.8897 20.454 30.6989 20.375 30.5 20.375C29.42 20.375 28.8125 20.135 28.4645 19.7855C28.115 19.4375 27.875 18.83 27.875 17.75Z" fill="#D2FF00"/>
</g>
<defs>
<filter id="filter0_d_1783_687" x="0" y="0" width="62.5" height="62.5" filterUnits="userSpaceOnUse" color-interpolation-filters="sRGB">
<feFlood flood-opacity="0" result="BackgroundImageFix"/>
<feColorMatrix in="SourceAlpha" type="matrix" values="0 0 0 0 0 0 0 0 0 0 0 0 0 0 0 0 0 0 127 0" result="hardAlpha"/>
<feOffset dy="6"/>
<feGaussianBlur stdDeviation="11.5"/>
<feComposite in2="hardAlpha" operator="out"/>
<feColorMatrix type="matrix" values="0 0 0 0 0.823529 0 0 0 0 1 0 0 0 0 0 0 0 0 1 0"/>
<feBlend mode="normal" in2="BackgroundImageFix" result="effect1_dropShadow_1783_687"/>
<feBlend mode="normal" in="SourceGraphic" in2="effect1_dropShadow_1783_687" result="shape"/>
</filter>
</defs>
</svg>
