<svg width="45" height="65" viewBox="0 0 45 65" fill="none" xmlns="http://www.w3.org/2000/svg">
<g filter="url(#filter0_d_569_3427)">
<path d="M15.4275 23C15.4275 22.7727 15.3372 22.5547 15.1764 22.3939C15.0157 22.2332 14.7976 22.1429 14.5703 22.1429C14.343 22.1429 14.125 22.2332 13.9642 22.3939C13.8035 22.5547 13.7132 22.7727 13.7132 23C13.7132 24.9783 13.276 26.2074 12.5269 26.9566C11.776 27.7057 10.5486 28.1429 8.57031 28.1429C8.34298 28.1429 8.12497 28.2332 7.96422 28.3939C7.80348 28.5547 7.71317 28.7727 7.71317 29C7.71317 29.2273 7.80348 29.4453 7.96422 29.6061C8.12497 29.7668 8.34298 29.8571 8.57031 29.8571C10.5486 29.8571 11.7777 30.2943 12.5269 31.0434C13.276 31.7943 13.7132 33.0217 13.7132 35C13.7132 35.2273 13.8035 35.4453 13.9642 35.6061C14.125 35.7668 14.343 35.8571 14.5703 35.8571C14.7976 35.8571 15.0157 35.7668 15.1764 35.6061C15.3372 35.4453 15.4275 35.2273 15.4275 35C15.4275 33.0217 15.8646 31.7926 16.6137 31.0434C17.3646 30.2943 18.592 29.8571 20.5703 29.8571C20.7976 29.8571 21.0157 29.7668 21.1764 29.6061C21.3372 29.4453 21.4275 29.2273 21.4275 29C21.4275 28.7727 21.3372 28.5547 21.1764 28.3939C21.0157 28.2332 20.7976 28.1429 20.5703 28.1429C18.592 28.1429 17.3629 27.7057 16.6137 26.9566C15.8646 26.2057 15.4275 24.9783 15.4275 23ZM8.14174 17.8571C8.14174 17.6298 8.05143 17.4118 7.89069 17.2511C7.72994 17.0903 7.51193 17 7.2846 17C7.05727 17 6.83925 17.0903 6.67851 17.2511C6.51776 17.4118 6.42746 17.6298 6.42746 17.8571C6.42746 19.0914 6.15317 19.7857 5.75374 20.1834C5.35603 20.5829 4.66174 20.8571 3.42746 20.8571C3.20013 20.8571 2.98211 20.9474 2.82136 21.1082C2.66062 21.2689 2.57031 21.487 2.57031 21.7143C2.57031 21.9416 2.66062 22.1596 2.82136 22.3204C2.98211 22.4811 3.20013 22.5714 3.42746 22.5714C4.66174 22.5714 5.35603 22.8457 5.75374 23.2451C6.15317 23.6429 6.42746 24.3371 6.42746 25.5714C6.42746 25.7988 6.51776 26.0168 6.67851 26.1775C6.83925 26.3383 7.05727 26.4286 7.2846 26.4286C7.51193 26.4286 7.72994 26.3383 7.89069 26.1775C8.05143 26.0168 8.14174 25.7988 8.14174 25.5714C8.14174 24.3371 8.41603 23.6429 8.81546 23.2451C9.21317 22.8457 9.90746 22.5714 11.1417 22.5714C11.3691 22.5714 11.5871 22.4811 11.7478 22.3204C11.9086 22.1596 11.9989 21.9416 11.9989 21.7143C11.9989 21.487 11.9086 21.2689 11.7478 21.1082C11.5871 20.9474 11.3691 20.8571 11.1417 20.8571C9.90746 20.8571 9.21317 20.5829 8.81546 20.1834C8.41603 19.7857 8.14174 19.0914 8.14174 17.8571Z" fill="#D2FF00"/>
</g>
<defs>
<filter id="filter0_d_569_3427" x="-20.4297" y="0" width="64.8574" height="64.8571" filterUnits="userSpaceOnUse" color-interpolation-filters="sRGB">
<feFlood flood-opacity="0" result="BackgroundImageFix"/>
<feColorMatrix in="SourceAlpha" type="matrix" values="0 0 0 0 0 0 0 0 0 0 0 0 0 0 0 0 0 0 127 0" result="hardAlpha"/>
<feOffset dy="6"/>
<feGaussianBlur stdDeviation="11.5"/>
<feComposite in2="hardAlpha" operator="out"/>
<feColorMatrix type="matrix" values="0 0 0 0 0.823529 0 0 0 0 1 0 0 0 0 0 0 0 0 1 0"/>
<feBlend mode="normal" in2="BackgroundImageFix" result="effect1_dropShadow_569_3427"/>
<feBlend mode="normal" in="SourceGraphic" in2="effect1_dropShadow_569_3427" result="shape"/>
</filter>
</defs>
</svg>
